# xmcd
#
# Track frame offsets:
#	150
#	10815
#	19955
#	34410
#	44222
#	58564
#	69190
#	83397
#	95730
#	107790
#	122529
#	135070
#
# Disc length: 2014 seconds
# Revision: 0
# Processed by: cddbd v1.5.2PL0 Copyright (c) Steve Scherf et al.
# Submitted via: dBpowerAMP V12.0
#
DISCID=9507dc0c
DTITLE=Memphis Slim - At the Gate of the Horn
DYEAR=1959
DGENRE=Blues
TTITLE0=The Come Back
TTITLE1=Steppin' Out
TTITLE2=Blue and Lonesome
TTITLE3=Mother Earth
TTITLE4=Slim's Blues
TTITLE5=Gotta Find My Baby
TTITLE6=Messin' Around
TTITLE7=Wish Me Well
TTITLE8=My Gal Keeps Me Crying
TTITLE9=Lend Me Your Love
TTITLE10=Sassy Mae
TTITLE11=Rockin' the Blues
EXTD=
EXTT0=
EXTT1=
EXTT2=
EXTT3=
EXTT4=
EXTT5=
EXTT6=
EXTT7=
EXTT8=
EXTT9=
EXTT10=
EXTT11=
PLAYORDER=
